<svg width="86" height="32" viewBox="0 0 86 32" fill="none" xmlns="http://www.w3.org/2000/svg">
<g clip-path="url(#clip0_253_597)">
<path d="M76.3118 31.8263C48.8 13.3222 21.7869 16.4535 13.355 27.5482C15.9721 23.274 18.2036 20.9296 23.9513 16.9252C24.0088 16.8851 24.0722 16.8501 24.1369 16.8232C46.1145 7.6744 72.824 24.0446 79.8857 29.1508C80.0535 29.2721 80.1654 29.4343 80.2309 29.6308L81.0205 31.9998H76.8757C76.6757 31.9998 76.4777 31.9379 76.3118 31.8263Z" fill="#4B5C92"/>
<path d="M1.86851 32H10.9245C11.3197 32 11.6763 31.7666 11.8454 31.4095C12.9111 29.1589 14.3281 26.9556 16.0261 24.8448C18.4786 21.7959 21.5172 18.9402 24.9294 16.4146C43.9163 2.36063 76.4069 -1.7569 80.0363 31.0719C80.0931 31.5855 80.5256 32 81.0424 32H83.9495C84.5312 32 84.9886 31.4769 84.9343 30.8978C80.6481 -14.8219 26.2911 -5.3826 1.05837 30.4555C0.598562 31.1085 1.06982 32 1.86851 32Z" fill="#4B5C92"/>
</g>
<defs>
<clipPath id="clip0_253_597">
<rect width="85.0271" height="32" fill="white"/>
</clipPath>
</defs>
</svg>
