<svg width="334" height="48" viewBox="0 0 334 48" fill="none" xmlns="http://www.w3.org/2000/svg">
<g clip-path="url(#clip0_253_584)">
<path d="M77.3118 35.1064C49.8 16.6023 22.7869 19.7336 14.355 30.8282C16.9721 26.554 19.2036 24.2096 24.9513 20.2052C25.0088 20.1652 25.0722 20.1302 25.1369 20.1032C47.1145 10.9544 73.824 27.3246 80.8857 32.4308C81.0535 32.5522 81.1654 32.7144 81.2309 32.9108L82.0205 35.2799H77.8757C77.6757 35.2799 77.4777 35.218 77.3118 35.1064Z" fill="#4B5C92"/>
<path d="M2.86851 35.28H11.9245C12.3197 35.28 12.6763 35.0467 12.8454 34.6895C13.9111 32.4389 15.3281 30.2356 17.0261 28.1248C19.4786 25.076 22.5172 22.2203 25.9294 19.6946C44.9163 5.64066 77.4069 1.52312 81.0363 34.3519C81.0931 34.8655 81.5256 35.28 82.0424 35.28H84.9495C85.5312 35.28 85.9886 34.7569 85.9343 34.1778C81.6481 -11.5419 27.2911 -2.10257 2.05837 33.7355C1.59856 34.3886 2.06982 35.28 2.86851 35.28Z" fill="#4B5C92"/>
</g>
<path d="M115.847 19.17C117.617 19.5 119.072 20.385 120.212 21.825C121.352 23.265 121.922 24.915 121.922 26.775C121.922 28.455 121.502 29.94 120.662 31.23C119.852 32.49 118.667 33.48 117.107 34.2C115.547 34.92 113.702 35.28 111.572 35.28H98.0271V3.87H110.987C113.117 3.87 114.947 4.215 116.477 4.905C118.037 5.595 119.207 6.555 119.987 7.785C120.797 9.015 121.202 10.41 121.202 11.97C121.202 13.8 120.707 15.33 119.717 16.56C118.757 17.79 117.467 18.66 115.847 19.17ZM104.327 16.83H110.087C111.587 16.83 112.742 16.5 113.552 15.84C114.362 15.15 114.767 14.175 114.767 12.915C114.767 11.655 114.362 10.68 113.552 9.99C112.742 9.3 111.587 8.955 110.087 8.955H104.327V16.83ZM110.672 30.15C112.202 30.15 113.387 29.79 114.227 29.07C115.097 28.35 115.532 27.33 115.532 26.01C115.532 24.66 115.082 23.61 114.182 22.86C113.282 22.08 112.067 21.69 110.537 21.69H104.327V30.15H110.672Z" fill="#4B5C92"/>
<path d="M148.228 10.35V35.28H141.883V32.13C141.073 33.21 140.008 34.065 138.688 34.695C137.398 35.295 135.988 35.595 134.458 35.595C132.508 35.595 130.783 35.19 129.283 34.38C127.783 33.54 126.598 32.325 125.728 30.735C124.888 29.115 124.468 27.195 124.468 24.975V10.35H130.768V24.075C130.768 26.055 131.263 27.585 132.253 28.665C133.243 29.715 134.593 30.24 136.303 30.24C138.043 30.24 139.408 29.715 140.398 28.665C141.388 27.585 141.883 26.055 141.883 24.075V10.35H148.228Z" fill="#4B5C92"/>
<path d="M155.389 7.38C154.279 7.38 153.349 7.035 152.599 6.345C151.879 5.625 151.519 4.74 151.519 3.69C151.519 2.64 151.879 1.77 152.599 1.08C153.349 0.36 154.279 0 155.389 0C156.499 0 157.414 0.36 158.134 1.08C158.884 1.77 159.259 2.64 159.259 3.69C159.259 4.74 158.884 5.625 158.134 6.345C157.414 7.035 156.499 7.38 155.389 7.38ZM158.494 10.35V35.28H152.194V10.35H158.494Z" fill="#4B5C92"/>
<path d="M168.769 1.98V35.28H162.469V1.98H168.769Z" fill="#4B5C92"/>
<path d="M171.123 22.725C171.123 20.205 171.618 17.97 172.608 16.02C173.628 14.07 175.008 12.57 176.748 11.52C178.488 10.47 180.423 9.945 182.553 9.945C184.173 9.945 185.718 10.305 187.188 11.025C188.658 11.715 189.828 12.645 190.698 13.815V1.98H197.088V35.28H190.698V31.59C189.918 32.82 188.823 33.81 187.413 34.56C186.003 35.31 184.368 35.685 182.508 35.685C180.408 35.685 178.488 35.145 176.748 34.065C175.008 32.985 173.628 31.47 172.608 29.52C171.618 27.54 171.123 25.275 171.123 22.725ZM190.743 22.815C190.743 21.285 190.443 19.98 189.843 18.9C189.243 17.79 188.433 16.95 187.413 16.38C186.393 15.78 185.298 15.48 184.128 15.48C182.958 15.48 181.878 15.765 180.888 16.335C179.898 16.905 179.088 17.745 178.458 18.855C177.858 19.935 177.558 21.225 177.558 22.725C177.558 24.225 177.858 25.545 178.458 26.685C179.088 27.795 179.898 28.65 180.888 29.25C181.908 29.85 182.988 30.15 184.128 30.15C185.298 30.15 186.393 29.865 187.413 29.295C188.433 28.695 189.243 27.855 189.843 26.775C190.443 25.665 190.743 24.345 190.743 22.815Z" fill="#4B5C92"/>
<path d="M218.811 19.17C220.581 19.5 222.036 20.385 223.176 21.825C224.316 23.265 224.886 24.915 224.886 26.775C224.886 28.455 224.466 29.94 223.626 31.23C222.816 32.49 221.631 33.48 220.071 34.2C218.511 34.92 216.666 35.28 214.536 35.28H200.991V3.87H213.951C216.081 3.87 217.911 4.215 219.441 4.905C221.001 5.595 222.171 6.555 222.951 7.785C223.761 9.015 224.166 10.41 224.166 11.97C224.166 13.8 223.671 15.33 222.681 16.56C221.721 17.79 220.431 18.66 218.811 19.17ZM207.291 16.83H213.051C214.551 16.83 215.706 16.5 216.516 15.84C217.326 15.15 217.731 14.175 217.731 12.915C217.731 11.655 217.326 10.68 216.516 9.99C215.706 9.3 214.551 8.955 213.051 8.955H207.291V16.83ZM213.636 30.15C215.166 30.15 216.351 29.79 217.191 29.07C218.061 28.35 218.496 27.33 218.496 26.01C218.496 24.66 218.046 23.61 217.146 22.86C216.246 22.08 215.031 21.69 213.501 21.69H207.291V30.15H213.636Z" fill="#4B5C92"/>
<path d="M233.957 14.22C234.767 12.9 235.817 11.865 237.107 11.115C238.427 10.365 239.927 9.99 241.607 9.99V16.605H239.942C237.962 16.605 236.462 17.07 235.442 18C234.452 18.93 233.957 20.55 233.957 22.86V35.28H227.657V10.35H233.957V14.22Z" fill="#4B5C92"/>
<path d="M246.795 7.38C245.685 7.38 244.755 7.035 244.005 6.345C243.285 5.625 242.925 4.74 242.925 3.69C242.925 2.64 243.285 1.77 244.005 1.08C244.755 0.36 245.685 0 246.795 0C247.905 0 248.82 0.36 249.54 1.08C250.29 1.77 250.665 2.64 250.665 3.69C250.665 4.74 250.29 5.625 249.54 6.345C248.82 7.035 247.905 7.38 246.795 7.38ZM249.9 10.35V35.28H243.6V10.35H249.9Z" fill="#4B5C92"/>
<path d="M252.255 22.725C252.255 20.205 252.75 17.97 253.74 16.02C254.76 14.07 256.14 12.57 257.88 11.52C259.62 10.47 261.555 9.945 263.685 9.945C265.305 9.945 266.85 10.305 268.32 11.025C269.79 11.715 270.96 12.645 271.83 13.815V1.98H278.22V35.28H271.83V31.59C271.05 32.82 269.955 33.81 268.545 34.56C267.135 35.31 265.5 35.685 263.64 35.685C261.54 35.685 259.62 35.145 257.88 34.065C256.14 32.985 254.76 31.47 253.74 29.52C252.75 27.54 252.255 25.275 252.255 22.725ZM271.875 22.815C271.875 21.285 271.575 19.98 270.975 18.9C270.375 17.79 269.565 16.95 268.545 16.38C267.525 15.78 266.43 15.48 265.26 15.48C264.09 15.48 263.01 15.765 262.02 16.335C261.03 16.905 260.22 17.745 259.59 18.855C258.99 19.935 258.69 21.225 258.69 22.725C258.69 24.225 258.99 25.545 259.59 26.685C260.22 27.795 261.03 28.65 262.02 29.25C263.04 29.85 264.12 30.15 265.26 30.15C266.43 30.15 267.525 29.865 268.545 29.295C269.565 28.695 270.375 27.855 270.975 26.775C271.575 25.665 271.875 24.345 271.875 22.815Z" fill="#4B5C92"/>
<path d="M291.888 9.945C293.748 9.945 295.383 10.32 296.793 11.07C298.203 11.79 299.313 12.735 300.123 13.905V10.35H306.468V35.46C306.468 37.77 306.003 39.825 305.073 41.625C304.143 43.455 302.748 44.895 300.888 45.945C299.028 47.025 296.778 47.565 294.138 47.565C290.598 47.565 287.688 46.74 285.408 45.09C283.158 43.44 281.883 41.19 281.583 38.34H287.838C288.168 39.48 288.873 40.38 289.953 41.04C291.063 41.73 292.398 42.075 293.958 42.075C295.788 42.075 297.273 41.52 298.413 40.41C299.553 39.33 300.123 37.68 300.123 35.46V31.59C299.313 32.76 298.188 33.735 296.748 34.515C295.338 35.295 293.718 35.685 291.888 35.685C289.788 35.685 287.868 35.145 286.128 34.065C284.388 32.985 283.008 31.47 281.988 29.52C280.998 27.54 280.503 25.275 280.503 22.725C280.503 20.205 280.998 17.97 281.988 16.02C283.008 14.07 284.373 12.57 286.083 11.52C287.823 10.47 289.758 9.945 291.888 9.945ZM300.123 22.815C300.123 21.285 299.823 19.98 299.223 18.9C298.623 17.79 297.813 16.95 296.793 16.38C295.773 15.78 294.678 15.48 293.508 15.48C292.338 15.48 291.258 15.765 290.268 16.335C289.278 16.905 288.468 17.745 287.838 18.855C287.238 19.935 286.938 21.225 286.938 22.725C286.938 24.225 287.238 25.545 287.838 26.685C288.468 27.795 289.278 28.65 290.268 29.25C291.288 29.85 292.368 30.15 293.508 30.15C294.678 30.15 295.773 29.865 296.793 29.295C297.813 28.695 298.623 27.855 299.223 26.775C299.823 25.665 300.123 24.345 300.123 22.815Z" fill="#4B5C92"/>
<path d="M333.546 22.275C333.546 23.175 333.486 23.985 333.366 24.705H315.141C315.291 26.505 315.921 27.915 317.031 28.935C318.141 29.955 319.506 30.465 321.126 30.465C323.466 30.465 325.131 29.46 326.121 27.45H332.916C332.196 29.85 330.816 31.83 328.776 33.39C326.736 34.92 324.231 35.685 321.261 35.685C318.861 35.685 316.701 35.16 314.781 34.11C312.891 33.03 311.406 31.515 310.326 29.565C309.276 27.615 308.751 25.365 308.751 22.815C308.751 20.235 309.276 17.97 310.326 16.02C311.376 14.07 312.846 12.57 314.736 11.52C316.626 10.47 318.801 9.945 321.261 9.945C323.631 9.945 325.746 10.455 327.606 11.475C329.496 12.495 330.951 13.95 331.971 15.84C333.021 17.7 333.546 19.845 333.546 22.275ZM327.021 20.475C326.991 18.855 326.406 17.565 325.266 16.605C324.126 15.615 322.731 15.12 321.081 15.12C319.521 15.12 318.201 15.6 317.121 16.56C316.071 17.49 315.426 18.795 315.186 20.475H327.021Z" fill="#4B5C92"/>
<defs>
<clipPath id="clip0_253_584">
<rect width="85.0271" height="32" fill="white" transform="translate(1 3.28003)"/>
</clipPath>
</defs>
</svg>
